<?xml version="1.0" standalone="no"?>
<!DOCTYPE svg PUBLIC "-//W3C//DTD SVG 20010904//EN"
 "http://www.w3.org/TR/2001/REC-SVG-20010904/DTD/svg10.dtd">
<svg version="1.0" xmlns="http://www.w3.org/2000/svg"
 width="200.000000pt" height="200.000000pt" viewBox="0 0 200.000000 200.000000"
 preserveAspectRatio="xMidYMid meet">

<g transform="translate(0.000000,200.000000) scale(0.100000,-0.100000)"
fill="#ffffff" stroke="none">
<path d="M836 1885 c-288 -60 -515 -233 -641 -488 -70 -143 -89 -224 -89 -397
0 -118 5 -160 22 -225 87 -318 330 -561 647 -646 105 -29 325 -32 428 -6 328
82 580 328 668 652 18 65 22 107 22 225 0 118 -4 160 -22 225 -86 317 -332
563 -646 646 -104 27 -292 34 -389 14z m414 -60 c235 -76 415 -228 522 -440
28 -55 81 -215 74 -222 -3 -3 -38 3 -78 13 -47 11 -131 19 -237 22 -214 6
-331 -12 -488 -74 l-61 -25 -79 21 c-43 11 -102 23 -130 27 -29 3 -53 8 -53
11 0 13 73 121 99 146 28 26 31 27 46 12 20 -20 29 -20 49 -1 17 18 21 11 67
-116 20 -56 24 -60 36 -43 22 30 35 96 31 152 -3 36 -1 51 6 48 6 -2 37 -16
69 -30 l59 -26 -7 32 c-10 49 -56 119 -95 146 -28 19 -44 23 -81 19 l-47 -4
-5 44 c-10 93 -98 168 -188 161 l-41 -3 46 -63 c25 -34 46 -64 46 -65 0 -2
-18 -9 -40 -16 -22 -6 -59 -30 -82 -51 -34 -33 -48 -40 -82 -40 -23 0 -54 -8
-71 -18 l-30 -19 -20 36 c-21 37 -63 63 -124 78 l-34 8 64 64 c114 114 270
201 424 235 51 11 109 15 210 12 119 -3 152 -7 225 -31z m-935 -372 c19 -9 35
-19 35 -22 0 -3 -13 -15 -29 -25 -31 -21 -81 -91 -81 -113 0 -16 14 -15 60 1
31 11 38 11 61 -7 l27 -19 -16 -51 c-9 -29 -17 -54 -18 -56 -2 -1 -40 -9 -86
-17 -46 -8 -91 -17 -100 -20 -23 -7 -23 17 -2 100 14 55 98 246 109 246 2 0
20 -8 40 -17z m442 -30 c3 -10 13 -26 21 -35 28 -33 -4 -18 -38 17 -32 33 -32
35 -12 35 13 0 25 -8 29 -17z m-3 -90 c-10 -16 -30 -50 -45 -76 l-26 -49 -8
38 c-3 21 -15 55 -26 76 l-19 38 71 0 71 0 -18 -27z m-94 -165 c0 -3 -54 -6
-120 -5 -66 0 -120 4 -120 8 0 5 7 26 16 48 15 37 17 39 50 34 30 -5 36 -3 41
15 5 19 11 16 69 -36 35 -31 64 -60 64 -64z m-320 -225 c0 -148 56 -339 126
-430 18 -24 22 -34 12 -37 -64 -21 -130 -36 -138 -31 -15 9 -84 114 -112 170
-45 89 -79 214 -85 313 l-6 92 102 0 101 0 0 -77z m255 27 c-24 -92 -38 -228
-33 -334 3 -58 1 -106 -3 -106 -11 0 -65 65 -92 112 -39 68 -67 174 -74 281
l-6 97 111 0 110 0 -13 -50z m1262 -42 c-13 -220 -122 -433 -299 -583 l-51
-44 -41 28 c-161 111 -382 170 -651 176 -149 3 -150 3 -163 28 -37 74 -40 271
-7 415 l17 72 600 0 601 0 -6 -92z"/>
<path d="M1232 1648 c15 -13 15 -15 0 -27 -15 -11 -15 -11 3 -6 11 4 29 8 40
9 25 3 68 26 62 33 -3 2 -14 1 -24 -4 -19 -10 -46 -9 -78 2 -18 6 -19 5 -3 -7z"/>
<path d="M1170 1630 c29 -23 48 -26 31 -6 -6 8 -22 16 -34 20 -21 5 -21 4 3
-14z"/>
<path d="M940 960 c-28 -28 -34 -62 -16 -105 9 -21 16 -39 16 -41 0 -1 -18 -4
-40 -6 l-39 -3 20 -32 21 -33 99 0 98 0 16 30 c8 16 15 31 15 35 0 3 -34 5
-76 5 l-77 0 7 85 c6 73 5 85 -8 85 -9 0 -25 -9 -36 -20z"/>
<path d="M1431 756 c-25 -27 -31 -79 -12 -114 16 -30 15 -32 -24 -32 -41 0
-42 -4 -15 -47 l20 -33 95 0 94 0 16 30 c24 47 21 50 -58 50 l-73 0 4 85 c5
94 -4 106 -47 61z"/>
</g>
</svg>
