<?xml version="1.0" standalone="no"?>
<!DOCTYPE svg PUBLIC "-//W3C//DTD SVG 20010904//EN"
 "http://www.w3.org/TR/2001/REC-SVG-20010904/DTD/svg10.dtd">
<svg version="1.0" xmlns="http://www.w3.org/2000/svg"
 width="158.000000pt" height="158.000000pt" viewBox="0 0 158.000000 158.000000"
 preserveAspectRatio="xMidYMid meet">
<metadata>
Created by potrace 1.10, written by Peter Selinger 2001-2011
</metadata>
<g transform="translate(-70.000000,158.000000) scale(0.100000,-0.100000)"
fill="#ffffff" stroke="none">
<path d="M1410 1569 c-312 -21 -593 -268 -675 -594 -24 -95 -24 -275 0 -370
60 -239 213 -424 438 -530 111 -53 173 -65 327 -65 154 0 216 12 327 65 181
85 306 210 387 387 127 276 84 596 -110 832 -72 87 -149 147 -259 201 -140 70
-244 87 -435 74z m273 -65 c34 -8 94 -31 133 -49 372 -178 525 -637 334 -1003
-97 -187 -267 -324 -470 -378 -88 -24 -272 -24 -360 0 -458 123 -688 637 -470
1054 109 211 308 355 539 392 74 12 217 4 294 -16z"/>
<path d="M1435 1313 c-16 -2 -54 -11 -82 -19 -40 -11 -53 -19 -53 -34 0 -29
15 -32 76 -14 41 12 84 15 158 13 97 -4 101 -3 104 17 2 16 -3 23 -20 27 -37
9 -150 15 -183 10z"/>
<path d="M1173 1183 c-10 -4 -13 -41 -13 -143 l0 -138 39 -34 39 -33 -13 -230
c-11 -207 -11 -233 4 -265 28 -62 101 -66 144 -8 19 26 19 33 8 264 l-13 237
41 41 41 42 0 126 c0 98 -3 128 -15 138 -28 23 -35 0 -35 -123 l0 -121 -42
-43 -41 -42 12 -242 c12 -246 10 -269 -24 -269 -36 0 -39 23 -27 273 l12 241
-40 41 -40 41 0 121 c0 122 -5 137 -37 126z"/>
<path d="M1252 1181 c-9 -6 -12 -41 -10 -132 3 -116 4 -124 23 -124 19 0 20 8
23 121 3 123 -6 154 -36 135z"/>
<path d="M1333 1183 c-10 -3 -13 -38 -13 -128 0 -125 7 -149 35 -125 12 10 15
39 15 125 0 113 -8 139 -37 128z"/>
<path d="M1663 1179 c-47 -14 -79 -59 -97 -138 -9 -39 -16 -78 -16 -88 0 -40
24 -98 50 -123 l28 -26 -11 -222 c-11 -242 -8 -259 40 -281 37 -17 69 -13 98
12 32 27 32 28 21 285 l-8 204 25 26 c50 52 61 133 31 232 -22 73 -38 96 -85
114 -22 9 -40 16 -42 15 -1 0 -16 -5 -34 -10z m79 -66 c20 -23 48 -116 48
-160 0 -42 -24 -90 -49 -98 -11 -3 -21 -11 -23 -18 -3 -7 -1 -79 3 -162 4 -82
8 -189 8 -237 1 -80 -1 -87 -20 -93 -13 -4 -27 -1 -36 7 -12 13 -12 48 -3 247
l11 233 -37 32 c-34 30 -37 36 -37 87 0 65 27 155 51 169 27 15 67 12 84 -7z"/>
<path d="M1862 1127 c-9 -10 -3 -26 25 -67 53 -79 75 -143 80 -240 8 -133 -27
-242 -108 -334 -34 -39 -39 -76 -9 -76 12 0 34 20 59 53 80 107 111 199 111
328 0 105 -23 187 -79 279 -40 67 -59 81 -79 57z"/>
<path d="M1050 1058 c-68 -119 -90 -285 -54 -409 33 -111 124 -249 157 -236
25 9 21 35 -12 73 -74 84 -111 188 -111 310 0 83 27 181 65 237 29 41 30 70 3
75 -11 2 -27 -14 -48 -50z"/>
<path d="M1422 307 c-23 -27 4 -42 78 -42 51 0 73 4 80 15 17 27 -9 40 -80 40
-43 0 -71 -5 -78 -13z"/>
</g>
</svg>
