<?xml version="1.0" standalone="no"?>
<!DOCTYPE svg PUBLIC "-//W3C//DTD SVG 20010904//EN"
 "http://www.w3.org/TR/2001/REC-SVG-20010904/DTD/svg10.dtd">
<svg version="1.0" xmlns="http://www.w3.org/2000/svg"
 width="512.000000pt" height="512.000000pt" viewBox="0 0 512.000000 512.000000"
 preserveAspectRatio="xMidYMid meet">

<g transform="translate(0.000000,512.000000) scale(0.100000,-0.100000)"
fill="#ffffff" stroke="none">
<path d="M1638 4418 l-4 -183 -437 -1314 c-240 -722 -437 -1316 -437 -1320 0
-7 722 -81 729 -75 2 2 6 28 9 58 l4 55 -33 5 c-19 3 -148 17 -288 31 -140 13
-256 26 -258 29 -2 2 157 490 354 1084 l358 1081 3 -1211 c1 -666 1 -1212 0
-1214 -2 -1 -309 -21 -683 -44 -374 -23 -681 -43 -682 -44 -1 -1 1 -27 4 -59
l6 -57 48 0 c46 0 48 -2 97 -63 61 -75 161 -172 222 -214 25 -16 102 -60 171
-97 l126 -66 1331 0 1331 0 138 118 c199 171 274 256 407 460 41 61 74 102 84
102 50 1 604 39 607 42 1 2 0 29 -3 61 l-5 57 -61 -5 c-33 -3 -432 -28 -886
-55 -454 -27 -849 -51 -878 -54 l-52 -5 0 1342 c0 738 0 1431 0 1540 l0 197
-60 0 -60 0 0 -207 0 -208 -425 -1240 c-234 -681 -422 -1242 -417 -1246 4 -3
158 -20 342 -38 184 -18 349 -35 366 -37 l31 -6 6 58 c3 32 5 60 3 62 -2 1
-136 16 -297 33 -161 17 -294 31 -296 32 -2 2 620 1824 662 1937 l24 65 -2
-1145 -2 -1145 -515 -32 c-283 -17 -525 -32 -537 -32 l-23 -1 0 1575 0 1575
-60 0 -59 0 -3 -182z m2417 -2975 c-103 -162 -217 -290 -378 -426 l-115 -97
-1291 0 -1291 0 -83 41 c-133 67 -229 134 -303 211 l-69 72 30 7 c17 5 376 29
800 54 1042 63 1340 81 2035 125 327 20 615 38 639 39 l43 1 -17 -27z"/>
<path d="M3118 3869 c-21 -17 -38 -36 -38 -42 0 -7 22 -36 48 -65 l48 -54 41
34 c23 18 42 37 42 41 1 11 -89 117 -98 117 -3 -1 -23 -14 -43 -31z"/>
<path d="M3321 3621 l-45 -38 49 -61 c27 -36 52 -59 59 -55 6 4 27 20 47 37
l37 30 -46 59 c-25 32 -48 60 -52 62 -3 2 -25 -14 -49 -34z"/>
<path d="M3522 3372 l-44 -37 575 -710 c316 -391 571 -711 566 -713 -4 -2 -66
4 -136 13 -271 35 -643 35 -830 0 -47 -9 -87 -14 -89 -12 -2 2 1 64 7 138 5
74 10 267 10 429 0 264 -5 383 -27 613 l-7 69 -56 -7 c-31 -4 -58 -9 -60 -10
-2 -2 2 -57 9 -121 31 -303 29 -828 -5 -1143 -8 -79 -14 -146 -12 -147 2 -2
48 12 103 31 145 50 262 66 501 66 269 0 475 -21 767 -77 70 -14 130 -24 131
-22 4 4 -1348 1677 -1355 1677 -3 0 -24 -16 -48 -37z"/>
<path d="M520 540 l0 -60 1520 0 1520 0 0 60 0 60 -1520 0 -1520 0 0 -60z"/>
<path d="M3920 540 l0 -60 80 0 80 0 0 60 0 60 -80 0 -80 0 0 -60z"/>
<path d="M4240 540 l0 -60 80 0 80 0 0 60 0 60 -80 0 -80 0 0 -60z"/>
<path d="M4560 540 l0 -60 80 0 80 0 0 60 0 60 -80 0 -80 0 0 -60z"/>
</g>
</svg>
