<?xml version="1.0" standalone="no"?>
<!DOCTYPE svg PUBLIC "-//W3C//DTD SVG 20010904//EN"
 "http://www.w3.org/TR/2001/REC-SVG-20010904/DTD/svg10.dtd">
<svg version="1.0" xmlns="http://www.w3.org/2000/svg"
 width="225.000000pt" height="225.000000pt" viewBox="0 0 225.000000 225.000000"
 preserveAspectRatio="xMidYMid meet">

<g transform="translate(0.000000,225.000000) scale(0.100000,-0.100000)"
fill="#ffffff" stroke="none">
<path d="M1642 2070 c-145 -49 -269 -93 -276 -99 -6 -5 -27 -57 -46 -115 l-34
-106 -313 0 -313 0 8 -47 c4 -27 7 -100 7 -163 0 -111 -2 -119 -49 -260 -44
-129 -50 -157 -54 -250 -4 -94 -1 -114 22 -183 15 -43 41 -102 60 -130 70
-109 204 -206 329 -237 l47 -12 0 -97 0 -97 -137 -45 -138 -45 -3 -47 -3 -47
370 0 371 0 0 38 c0 20 -4 42 -8 48 -4 6 -67 31 -139 55 l-133 43 0 96 0 95
75 24 c127 39 248 137 314 256 53 93 66 149 65 275 -1 112 -2 118 -49 245 -47
127 -48 133 -52 265 -3 74 0 154 5 178 l10 42 -92 0 c-51 0 -95 2 -98 5 -3 3
6 38 21 77 l26 70 259 88 c142 49 260 91 263 94 11 11 -19 76 -35 75 -9 0
-136 -40 -280 -89z m-428 -509 c3 -4 -14 -66 -38 -137 l-43 -129 -155 -3 -154
-2 17 67 c10 38 18 98 18 134 1 36 4 69 8 72 10 10 341 8 347 -2z m160 -58 c7
-68 20 -149 32 -190 6 -23 5 -23 -86 -23 -69 0 -91 3 -88 13 3 6 24 69 47 140
38 114 45 127 66 127 22 0 24 -5 29 -67z"/>
<path d="M553 2105 c-243 -75 -342 -368 -192 -568 21 -27 59 -64 84 -83 48
-34 112 -60 122 -51 3 3 10 43 16 88 10 77 10 83 -8 93 -42 24 -84 74 -95 115
-29 108 36 212 145 232 63 12 116 -4 158 -48 32 -33 32 -33 130 -33 53 0 97 3
97 6 0 3 -12 29 -26 58 -29 58 -82 117 -135 151 -79 51 -207 68 -296 40z"/>
</g>
</svg>
