<?xml version="1.0" standalone="no"?>
<!DOCTYPE svg PUBLIC "-//W3C//DTD SVG 20010904//EN"
 "http://www.w3.org/TR/2001/REC-SVG-20010904/DTD/svg10.dtd">
<svg version="1.0" xmlns="http://www.w3.org/2000/svg"
 width="340.000000pt" height="340.000000pt" viewBox="0 0 340.000000 340.000000"
 preserveAspectRatio="xMidYMid meet">

<g transform="translate(0.000000,340.000000) scale(0.100000,-0.100000)"
fill="#ffffff" stroke="none">
<path d="M2482 2994 l-22 -15 0 -879 c0 -575 -3 -881 -10 -885 -6 -3 -10 -48
-10 -100 0 -111 -14 -185 -41 -220 -18 -22 -28 -25 -79 -25 -81 0 -90 5 -90
51 l0 39 -215 0 -215 0 0 -63 c0 -222 146 -399 368 -446 74 -15 246 -14 311 4
183 48 314 188 366 390 23 89 42 342 27 366 -9 14 -12 243 -12 893 l0 875 -22
15 c-18 13 -53 16 -178 16 -125 0 -160 -3 -178 -16z m273 -909 l0 -810 -97 -3
-98 -3 0 816 0 816 98 -3 97 -3 0 -810z"/>
<path d="M1035 2739 c-145 -19 -291 -73 -377 -141 -56 -44 -107 -120 -135
-201 -21 -58 -26 -92 -26 -172 0 -165 37 -277 122 -364 95 -98 222 -141 417
-141 139 0 146 3 262 111 34 33 68 59 75 59 7 0 47 -31 90 -70 108 -98 115
-100 254 -100 136 0 216 16 304 60 154 78 229 221 229 435 0 307 -181 480
-550 525 -101 12 -565 11 -665 -1z m717 -114 c155 -26 259 -79 324 -163 50
-66 69 -137 68 -257 -1 -135 -25 -199 -103 -275 -74 -73 -150 -100 -306 -107
l-110 -6 -80 73 c-90 82 -149 114 -192 104 -34 -9 -99 -52 -133 -89 -14 -15
-43 -41 -64 -56 -35 -26 -47 -29 -115 -29 -274 1 -420 117 -438 351 -23 295
147 446 527 467 185 11 522 4 622 -13z"/>
</g>
</svg>
